<?xml version="1.0" encoding="UTF-8"?>
<svg version="1.1" xmlns="http://www.w3.org/2000/svg" width="458" height="480">
<path d="M0 0 C11.59019726 9.14156404 17.36093292 19.62089711 20.49609375 33.96875 C20.8827148 37.48332576 20.93407101 40.95535249 20.9284668 44.48901367 C20.94375427 45.96908905 20.94375427 45.96908905 20.95935059 47.47906494 C20.9892314 50.6983425 20.99870821 53.91732134 21.0078125 57.13671875 C21.02467767 59.38545196 21.04283036 61.63417585 21.06221008 63.88288879 C21.10951645 69.76983731 21.13945086 75.65674801 21.16564941 81.54382324 C21.19555298 87.56379663 21.24204949 93.58363999 21.28710938 99.60351562 C21.37292205 111.39185879 21.440365 123.18022888 21.49609375 134.96875 C21.89765245 134.53837118 22.29921116 134.10799236 22.71293831 133.66457176 C24.55090543 131.69477253 26.38897728 129.72507105 28.22705078 127.75537109 C28.85871658 127.07836655 29.49038239 126.401362 30.14118958 125.70384216 C35.20189099 120.28096967 40.27857953 114.87349447 45.3671875 109.47680664 C48.75409396 105.88384195 52.13589851 102.2864764 55.50390625 98.67578125 C59.47888108 94.4186143 63.4775627 90.18481848 67.49609375 85.96875 C68.18799805 85.24139648 68.87990234 84.51404297 69.59277344 83.76464844 C81.02202266 71.81804752 91.22446343 61.53823464 108.7265625 60.83984375 C119.90103655 61.28041441 129.42287085 64.94552421 137.5234375 72.72265625 C146.29703106 82.71239149 148.37132919 93.00100567 147.68261719 105.92431641 C146.47758459 119.13235696 136.47055632 129.16835577 127.87109375 138.41015625 C125.83874296 140.59961311 123.87505706 142.82421535 121.93359375 145.09375 C118.58831737 148.95798333 114.97844957 152.52320383 111.31640625 156.0859375 C109.43225477 157.84628339 109.43225477 157.84628339 108.49609375 159.96875 C107.83609375 159.96875 107.17609375 159.96875 106.49609375 159.96875 C106.24537109 160.54399414 105.99464844 161.11923828 105.73632812 161.71191406 C104.32880548 164.27316196 102.7143935 166.00932392 100.65234375 168.078125 C99.90082031 168.83222656 99.14929688 169.58632812 98.375 170.36328125 C97.58996094 171.14058594 96.80492187 171.91789063 95.99609375 172.71875 C95.21105469 173.51152344 94.42601562 174.30429688 93.6171875 175.12109375 C92.86566406 175.87003906 92.11414063 176.61898437 91.33984375 177.390625 C90.65083984 178.07737305 89.96183594 178.76412109 89.25195312 179.47167969 C87.49609375 180.96875 87.49609375 180.96875 85.49609375 180.96875 C85.16609375 181.95875 84.83609375 182.94875 84.49609375 183.96875 C82.73936844 185.58645388 80.88137084 187.00909929 78.9921875 188.46875 C77.14300162 189.96967071 77.14300162 189.96967071 77.49609375 192.96875 C78.15609375 193.29875 78.81609375 193.62875 79.49609375 193.96875 C79.49609375 194.62875 79.49609375 195.28875 79.49609375 195.96875 C80.48609375 196.29875 81.47609375 196.62875 82.49609375 196.96875 C84.2079947 198.58891996 85.86928876 200.26315302 87.49609375 201.96875 C88.30796143 202.78585449 89.1198291 203.60295898 89.95629883 204.44482422 C90.80087646 205.2957666 91.6454541 206.14670898 92.515625 207.0234375 C93.95443833 208.46963274 95.39373856 209.91534145 96.83325195 211.36083984 C97.81235142 212.344962 98.7905507 213.32998062 99.76782227 214.31591797 C106.3930674 221.02694303 106.3930674 221.02694303 113.3828125 227.3515625 C120.04557432 233.05424032 126.06370521 239.48374407 132.22363281 245.71679688 C140.69314595 254.28135815 140.69314595 254.28135815 149.63183594 262.34912109 C153.270963 265.51071996 156.69048085 268.89691335 160.12109375 272.28125 C161.20777344 273.32442383 161.20777344 273.32442383 162.31640625 274.38867188 C171.91021539 283.86951043 177.45261869 294.41337409 177.87109375 308.03125 C177.56141064 318.43929535 174.03196978 326.81991775 167.18359375 334.59375 C157.66950976 343.00154515 149.47653425 347.20561935 136.49609375 346.96875 C120.25186602 344.97214444 110.57895901 336.80438042 99.83374023 325.2722168 C98.5076037 323.84786955 98.5076037 323.84786955 96.49609375 322.96875 C96.49609375 322.30875 96.49609375 321.64875 96.49609375 320.96875 C95.83609375 320.96875 95.17609375 320.96875 94.49609375 320.96875 C94.49609375 320.30875 94.49609375 319.64875 94.49609375 318.96875 C93.60141388 318.5625367 93.60141388 318.5625367 92.68865967 318.14811707 C90.52034145 316.98179268 89.13346773 315.84293908 87.41503906 314.09887695 C86.55329071 313.23206047 86.55329071 313.23206047 85.6741333 312.34773254 C85.0636615 311.72380112 84.4531897 311.09986969 83.82421875 310.45703125 C82.8623465 309.48735664 82.8623465 309.48735664 81.88104248 308.49809265 C79.83124613 306.43050974 77.7882393 304.35638776 75.74609375 302.28125 C73.71743113 300.22478754 71.68726815 298.16986681 69.6539917 296.1179657 C68.39106709 294.84298441 67.13082035 293.56534246 65.87384033 292.28450012 C62.18414645 288.55376253 58.35673312 285.06153774 54.38598633 281.6325531 C51.69619728 279.26454583 49.19448031 276.76121349 46.67578125 274.2109375 C46.16862579 273.69999542 45.66147034 273.18905334 45.13894653 272.66262817 C43.54714423 271.05880602 41.95869193 269.45173312 40.37109375 267.84375 C38.2673234 265.71314748 36.16009037 263.58605519 34.05078125 261.4609375 C33.12765137 260.52620605 32.20452148 259.59147461 31.25341797 258.62841797 C28.43479364 255.90962096 25.52066465 253.45316199 22.49609375 250.96875 C21.83609375 250.30875 21.17609375 249.64875 20.49609375 248.96875 C20.5060865 249.96234528 20.5060865 249.96234528 20.51628113 250.97601318 C20.58306304 257.91999417 20.62807098 264.86388273 20.66088867 271.80810547 C20.67590087 274.3937552 20.69631688 276.97937978 20.72241211 279.56494141 C20.7591292 283.29856604 20.77589649 287.03185166 20.7890625 290.765625 C20.81228828 292.47730865 20.81228828 292.47730865 20.83598328 294.22357178 C20.83910404 309.37660765 16.41382113 322.63841488 5.96875 333.828125 C-6.55285448 344.66831339 -20.00348614 346.85584315 -36.02685547 346.1640625 C-48.24433552 345.20072877 -58.10600063 338.29289397 -65.9609375 329.30078125 C-72.44052461 321.34483252 -76.61959136 311.46432178 -76.63533401 301.14189911 C-76.63917516 300.19247736 -76.6430163 299.2430556 -76.64697385 298.26486349 C-76.64610737 297.22995732 -76.64524088 296.19505115 -76.64434814 295.12878418 C-76.64731927 294.02295817 -76.65029039 292.91713216 -76.65335155 291.77779627 C-76.6620372 288.06474717 -76.6635467 284.35173033 -76.66503906 280.63867188 C-76.66966741 277.97925667 -76.67467163 275.3198444 -76.68008423 272.66043091 C-76.69365553 265.42868147 -76.69969081 258.19693759 -76.70409489 250.96517754 C-76.70686017 246.44580341 -76.71109812 241.92643141 -76.71559906 237.40705872 C-76.72779172 224.88419479 -76.73809002 212.36133256 -76.74147415 199.83846283 C-76.74169372 199.03721848 -76.74191328 198.23597413 -76.7421395 197.41044965 C-76.74235778 196.60732527 -76.74257606 195.80420089 -76.74280095 194.97673941 C-76.74324441 193.34940179 -76.74369097 191.72206418 -76.74414062 190.09472656 C-76.74436205 189.28751689 -76.74458348 188.48030721 -76.74481162 187.64863664 C-76.74875575 174.58239454 -76.766198 161.51620835 -76.78950015 148.44998783 C-76.81325354 135.02182719 -76.82567787 121.59369454 -76.82684207 108.16551256 C-76.82775676 100.63154589 -76.83345665 93.09765199 -76.85166168 85.56370544 C-76.86711681 79.14528314 -76.87215151 72.7269561 -76.86392358 66.30851871 C-76.86003568 63.03801108 -76.86251066 59.76773364 -76.87498093 56.49724197 C-76.94520674 36.92531828 -76.88235983 19.89436637 -62.81640625 4.65625 C-45.24725899 -11.53029642 -19.67288968 -13.79733124 0 0 Z " fill="#FDAD2D" transform="translate(124.50390625,73.03125)"/>
<path d="M0 0 C2 0 2 0 3.625 1.375 C5 3 5 3 5 5 C5.99 5.33 6.98 5.66 8 6 C9.71190095 7.62016996 11.37319501 9.29440302 13 11 C13.81186768 11.81710449 14.62373535 12.63420898 15.46020508 13.47607422 C16.30478271 14.3270166 17.14936035 15.17795898 18.01953125 16.0546875 C19.45834458 17.50088274 20.89764481 18.94659145 22.3371582 20.39208984 C23.31625767 21.376212 24.29445695 22.36123062 25.27172852 23.34716797 C31.89697365 30.05819303 31.89697365 30.05819303 38.88671875 36.3828125 C45.54948057 42.08549032 51.56761146 48.51499407 57.72753906 54.74804688 C66.1970522 63.31260815 66.1970522 63.31260815 75.13574219 71.38037109 C78.77486925 74.54196996 82.1943871 77.92816335 85.625 81.3125 C86.71167969 82.35567383 86.71167969 82.35567383 87.8203125 83.41992188 C97.41412164 92.90076043 102.95652494 103.44462409 103.375 117.0625 C103.06531689 127.47054535 99.53587603 135.85116775 92.6875 143.625 C83.17341601 152.03279515 74.9804405 156.23686935 62 156 C45.75577227 154.00339444 36.08286526 145.83563042 25.33764648 134.3034668 C24.01150995 132.87911955 24.01150995 132.87911955 22 132 C22 131.34 22 130.68 22 130 C21.34 130 20.68 130 20 130 C20 129.34 20 128.68 20 128 C19.40354675 127.72919113 18.80709351 127.45838226 18.19256592 127.17936707 C16.0242477 126.01304268 14.63737398 124.87418908 12.91894531 123.13012695 C12.34444641 122.5522493 11.76994751 121.97437164 11.17803955 121.37898254 C10.56756775 120.75505112 9.95709595 120.13111969 9.328125 119.48828125 C8.68687683 118.84183151 8.04562866 118.19538177 7.38494873 117.52934265 C5.33515238 115.46175974 3.29214555 113.38763776 1.25 111.3125 C-0.77866262 109.25603754 -2.8088256 107.20111681 -4.84210205 105.1492157 C-6.10502666 103.87423441 -7.3652734 102.59659246 -8.62225342 101.31575012 C-12.3119473 97.58501253 -16.13936063 94.09278774 -20.11010742 90.6638031 C-22.79989647 88.29579583 -25.30161344 85.79246349 -27.8203125 83.2421875 C-28.32746796 82.73124542 -28.83462341 82.22030334 -29.35714722 81.69387817 C-30.94894952 80.09005602 -32.53740182 78.48298312 -34.125 76.875 C-36.22877035 74.74439748 -38.33600338 72.61730519 -40.4453125 70.4921875 C-41.36844238 69.55745605 -42.29157227 68.62272461 -43.24267578 67.65966797 C-46.06130011 64.94087096 -48.9754291 62.48441199 -52 60 C-52.66 59.34 -53.32 58.68 -54 58 C-53.99000725 58.99359528 -53.99000725 58.99359528 -53.97981262 60.00726318 C-53.91303071 66.95124417 -53.86802277 73.89513273 -53.83520508 80.83935547 C-53.82019288 83.4250052 -53.79977687 86.01062978 -53.77368164 88.59619141 C-53.73696455 92.32981604 -53.72019726 96.06310166 -53.70703125 99.796875 C-53.69154739 100.93799744 -53.67606354 102.07911987 -53.66011047 103.25482178 C-53.65698971 118.40785765 -58.08227262 131.66966488 -68.52734375 142.859375 C-81.04894823 153.69956339 -94.49957989 155.88709315 -110.52294922 155.1953125 C-122.74042927 154.23197877 -132.60209438 147.32414397 -140.45703125 138.33203125 C-148.35300132 128.63697939 -151.17197963 117.98954669 -151.09765625 105.76171875 C-151.0962413 104.88095169 -151.09482635 104.00018463 -151.09336853 103.09272766 C-151.08778937 100.29094997 -151.07524071 97.48925338 -151.0625 94.6875 C-151.05748231 92.78320428 -151.05291987 90.87890731 -151.04882812 88.97460938 C-151.03782677 84.31637519 -151.02057649 79.65820133 -151 75 C-150.67 75 -150.34 75 -150 75 C-149.67 78.3 -149.34 81.6 -149 85 C-147.741875 84.030625 -146.48375 83.06125 -145.1875 82.0625 C-131.67628006 72.7770114 -116.55023661 67.70107461 -101.125 62.5625 C-82.54303992 56.3693364 -64.93717988 49.66284045 -49 38 C-47.63780578 37.03362216 -46.27443066 36.06890768 -44.91015625 35.10546875 C-21.46129615 18.76556404 -21.46129615 18.76556404 0 0 Z " fill="#2B9087" transform="translate(199,264)"/>
<path d="M0 0 C9.56170076 6.22060072 15.02791631 16.79906421 20.4375 26.5 C20.84790527 27.23041504 21.25831055 27.96083008 21.68115234 28.71337891 C54.26184533 87.1629163 60.61806879 156.61742006 42.99365234 220.84692383 C35.240285 247.87475272 22.95497595 284.09782277 -0.5625 301.5 C-6.744796 304.45064127 -12.41780299 303.48657161 -18.75 301.5 C-23.39760949 298.19503325 -26.81611777 293.84175679 -28.078125 288.19140625 C-28.46579013 280.20273563 -24.56829764 274.7743993 -19.9375 268.625 C2.48233145 238.34366921 13.65931124 199.19210965 15.26171875 161.87890625 C15.4375 159.5 15.4375 159.5 16.4375 157.5 C15.7775 157.17 15.1175 156.84 14.4375 156.5 C14.7675 155.84 15.0975 155.18 15.4375 154.5 C17.42125376 127.32718687 10.0352036 99.96557924 1.4375 74.5 C0.7775 74.5 0.1175 74.5 -0.5625 74.5 C-0.8925 73.51 -1.2225 72.52 -1.5625 71.5 C-0.9025 71.5 -0.2425 71.5 0.4375 71.5 C-5.96110969 56.48643703 -12.9480276 42.11983335 -22.5625 28.875 C-26.78864961 22.96437095 -28.16865848 17.82296804 -27.09375 10.640625 C-26.08765493 6.58665369 -24.26457712 3.70967668 -20.84765625 1.28125 C-13.50161884 -3.06735566 -7.79822496 -3.28346314 0 0 Z " fill="#FD9F27" transform="translate(369.5625,69.5)"/>
<path d="M0 0 C9.94431475 7.84340319 16.00017508 16.70930669 19.49609375 28.96875 C20.44166517 37.63282298 19.26579163 44.22587622 15.49609375 51.96875 C14.9506757 53.21059873 14.40932834 54.45423978 13.87109375 55.69921875 C4.48461048 77.00368373 -9.26566487 95.51413567 -24.50390625 112.96875 C-24.94412109 113.4735791 -25.38433594 113.9784082 -25.83789062 114.49853516 C-31.05328889 120.4447908 -36.35885765 125.9882453 -42.50390625 130.96875 C-42.99874512 131.37593262 -43.49358398 131.78311523 -44.00341797 132.20263672 C-65.17301049 149.56983271 -65.17301049 149.56983271 -76.50390625 150.96875 C-76.57423513 135.93840275 -76.62701071 120.90806833 -76.65934277 105.87759113 C-76.67475945 98.89742315 -76.69574841 91.91735788 -76.73022461 84.93725586 C-76.76351498 78.19397708 -76.78078819 71.45080479 -76.78853798 64.70744896 C-76.79405691 62.14200352 -76.80483372 59.57656354 -76.82109642 57.01116371 C-76.84305263 53.40225521 -76.84586556 49.79377959 -76.84448242 46.18481445 C-76.85526825 45.13751663 -76.86605408 44.09021881 -76.87716675 43.01118469 C-76.81684086 28.34912179 -72.87594534 15.55408401 -62.81640625 4.65625 C-45.24725899 -11.53029642 -19.67288968 -13.79733124 0 0 Z " fill="#FC4E31" transform="translate(124.50390625,73.03125)"/>
<path d="M0 0 C24.0519048 16.399026 35.09306535 51.93242168 40.30786133 79.40087891 C40.45376709 80.21733887 40.59967285 81.03379883 40.75 81.875 C40.92877686 82.85001465 41.10755371 83.8250293 41.29174805 84.82958984 C42.85716849 94.35320338 43.08966939 103.71583691 43.06567383 113.34960938 C43.06252911 115.97568959 43.08601252 118.60062166 43.11132812 121.2265625 C43.17242509 137.3081291 41.21638141 153.02067139 37 168.5625 C36.74468506 169.51672852 36.48937012 170.47095703 36.22631836 171.45410156 C32.21391805 185.9331589 26.30974307 204.50597286 14.07421875 214.203125 C8.67101085 217.24645928 3.81316755 218.47621782 -2.375 217.1875 C-7.32737861 215.7410606 -10.25616085 213.47224149 -13 209.0625 C-15.37346896 203.01015415 -15.67920207 198.5926804 -13.4609375 192.55859375 C-12.25958138 189.89623358 -10.90063465 187.35859844 -9.47924805 184.80810547 C-4.46927794 175.8119979 -0.97990145 166.80116797 1.75 156.875 C1.96172852 156.12669922 2.17345703 155.37839844 2.39160156 154.60742188 C8.44195789 132.22781543 8.44082447 104.31442983 2.75 81.875 C2.5943457 81.20694336 2.43869141 80.53888672 2.27832031 79.85058594 C-1.89635107 62.12698109 -10.03825171 45.86609751 -20.95898438 31.35400391 C-24.92208156 25.96086099 -27.66601992 20.59345732 -27.06005859 13.72070312 C-25.77770669 7.54353771 -23.10724994 4.27741322 -18.1875 0.5625 C-12.51503886 -2.44488242 -5.92769776 -2.05189538 0 0 Z " fill="#FDA328" transform="translate(309.25,102.125)"/>
<path d="M0 0 C0.53251949 2.84010395 0.76389383 4.2695957 0 7 C-2.05544217 9.2882166 -4.27896959 11.13627972 -6.671875 13.06640625 C-8.72497073 14.77157804 -10.30284069 16.40743914 -11.9375 18.5 C-12.618125 19.325 -13.29875 20.15 -14 21 C-14.66 21 -15.32 21 -16 21 C-16.1546875 21.8971875 -16.1546875 21.8971875 -16.3125 22.8125 C-17 25 -17 25 -18.375 26.3125 C-20.81661262 28.8480208 -21.70779103 31.7387107 -23 35 C-23.66 35 -24.32 35 -25 35 C-25.25072266 35.57524414 -25.50144531 36.15048828 -25.75976562 36.74316406 C-27.16728827 39.30441196 -28.78170025 41.04057392 -30.84375 43.109375 C-31.59527344 43.86347656 -32.34679687 44.61757812 -33.12109375 45.39453125 C-34.29865234 46.56048828 -34.29865234 46.56048828 -35.5 47.75 C-36.67755859 48.93916016 -36.67755859 48.93916016 -37.87890625 50.15234375 C-38.63042969 50.90128906 -39.38195312 51.65023437 -40.15625 52.421875 C-40.84525391 53.10862305 -41.53425781 53.79537109 -42.24414062 54.50292969 C-44 56 -44 56 -46 56 C-46.33 56.99 -46.66 57.98 -47 59 C-48.61159629 60.45907021 -50.28974668 61.84542621 -52 63.1875 C-55.55230664 66.01838704 -59.02310818 68.87220116 -62.375 71.9375 C-67.98646666 76.96608544 -73.97246791 81.48873377 -80 86 C-80.7204248 86.53963379 -81.44084961 87.07926758 -82.18310547 87.63525391 C-87.7576418 91.79997505 -93.36751704 95.91405921 -99 100 C-99.69528809 100.50740723 -100.39057617 101.01481445 -101.10693359 101.53759766 C-116.73387484 112.8807793 -132.8992126 121.07309968 -151.23388672 127.08300781 C-181.22598125 136.06421671 -181.22598125 136.06421671 -207 153 C-207.46290292 149.00746232 -207.74884019 145.01027697 -208 141 C-208.05816895 140.18547363 -208.11633789 139.37094727 -208.17626953 138.53173828 C-209.35338238 120.31164106 -209.35338238 120.31164106 -204.625 114.375 C-203.11254926 112.88638824 -201.56932833 111.428524 -200 110 C-198.43081148 108.17238824 -196.86858664 106.33877996 -195.3125 104.5 C-180.46843025 88.45663803 -161.32949426 80.58044777 -141.6242981 72.14312744 C-130.32004689 67.30156615 -119.1344859 62.22032824 -108 57 C-106.99163086 56.52739746 -105.98326172 56.05479492 -104.94433594 55.56787109 C-78.41158747 43.08505902 -52.23186748 29.71326532 -27.2800293 14.27636719 C-24.98430442 12.99121357 -22.72713767 12.06427921 -20.25 11.1875 C-14.22668878 8.94917222 -9.1202324 5.37737322 -3.80859375 1.828125 C-1 0 -1 0 0 0 Z " fill="#9DB43E" transform="translate(256,198)"/>
<path d="M0 0 C1.2065625 0.0309375 1.2065625 0.0309375 2.4375 0.0625 C2.60602247 1.66647277 2.77224886 3.2706869 2.9375 4.875 C3.0303125 5.76832031 3.123125 6.66164063 3.21875 7.58203125 C3.4375 10.0625 3.4375 10.0625 3.4375 13.0625 C3.4522738 14.79550122 3.46832207 16.5284917 3.48510742 18.26147461 C3.53939916 24.21699282 3.57387493 30.17248013 3.60229492 36.12817383 C3.61733737 38.69331587 3.63777637 41.25843238 3.66381836 43.82348633 C3.7005179 47.53733581 3.71729461 51.25084501 3.73046875 54.96484375 C3.74595261 56.09655502 3.76143646 57.2282663 3.77738953 58.39427185 C3.78053088 73.51302567 -0.67192239 86.76125019 -11.08984375 97.921875 C-23.61144823 108.76206339 -37.06207989 110.94959315 -53.08544922 110.2578125 C-65.30292927 109.29447877 -75.16459438 102.38664397 -83.01953125 93.39453125 C-90.91550132 83.69947939 -93.73447963 73.05204669 -93.66015625 60.82421875 C-93.6587413 59.94345169 -93.65732635 59.06268463 -93.65586853 58.15522766 C-93.65028937 55.35344997 -93.63774071 52.55175338 -93.625 49.75 C-93.61998231 47.84570428 -93.61541987 45.94140731 -93.61132812 44.03710938 C-93.60032677 39.37887519 -93.58307649 34.72070133 -93.5625 30.0625 C-93.2325 30.0625 -92.9025 30.0625 -92.5625 30.0625 C-92.2325 33.3625 -91.9025 36.6625 -91.5625 40.0625 C-90.304375 39.093125 -89.04625 38.12375 -87.75 37.125 C-73.51126241 27.33953013 -57.4227368 22.18446864 -41.1723938 16.7901001 C-29.47564179 12.89817288 -11.15753936 0.27213511 0 0 Z " fill="#3C9F56" transform="translate(141.5625,308.9375)"/>
<path d="M0 0 C0.33 0 0.66 0 1 0 C1.31621433 13.43832065 1.58873428 26.87675154 1.8056488 40.31706333 C1.90774436 46.55815947 2.024819 52.79822105 2.17626953 59.03833008 C2.32190407 65.06161162 2.42800324 71.08441737 2.50683594 77.10893059 C2.54381896 79.40606605 2.5949931 81.7030187 2.66064453 83.99951363 C2.75026987 87.21982132 2.78916903 90.43709064 2.81640625 93.65844727 C2.8545192 94.60575714 2.89263214 95.55306702 2.93190002 96.52908325 C2.92082598 100.32178038 2.87826968 102.93239733 0.41231537 105.92994976 C-0.95603247 107.11248111 -2.36566176 108.24858464 -3.8085022 109.33898258 C-5.9639888 110.97270578 -7.71355268 112.67866951 -9.54284668 114.66545105 C-10.11746895 115.28872693 -10.69209122 115.91200281 -11.28412628 116.55416584 C-11.87550133 117.20168906 -12.46687637 117.84921228 -13.07617188 118.51635742 C-19.82742655 125.80865789 -26.77692364 132.86281533 -33.85414124 139.83761024 C-35.85215034 141.80820892 -37.84510965 143.78379589 -39.83679199 145.76078796 C-45.48600837 151.36797121 -51.13846438 156.97179066 -56.80664062 162.55981445 C-60.3080904 166.0124596 -63.7994505 169.4750404 -67.28465271 172.94408226 C-68.59813127 174.24775984 -69.91523125 175.5478006 -71.23622131 176.84386635 C-78.01910544 183.50132612 -84.03315995 189.64813407 -88.5604248 198.08854675 C-89.03548462 198.71932632 -89.51054443 199.3501059 -90 200 C-91.32 200 -92.64 200 -94 200 C-94.33 203.63 -94.66 207.26 -95 211 C-95.33 211 -95.66 211 -96 211 C-96 179.98 -96 148.96 -96 117 C-92.37 115.68 -88.74 114.36 -85 113 C-82.49515799 111.48926716 -80.2924877 110.07077879 -78 108.3125 C-77.4124292 107.87679687 -76.8248584 107.44109375 -76.21948242 106.9921875 C-63.91150068 97.78496983 -51.73140554 87.96355893 -42 76 C-41.5551123 75.45682129 -41.11022461 74.91364258 -40.65185547 74.35400391 C-25.34709023 55.63046011 -9.55763328 34.64082449 -2.65625 11.125 C-2 9 -2 9 -1 8 C-0.76924918 6.65252916 -0.58846937 5.29622435 -0.4375 3.9375 C-0.293125 2.638125 -0.14875 1.33875 0 0 Z " fill="#FD982F" transform="translate(144,107)"/>
<path d="M0 0 C2 0 2 0 4.17724609 2.04785156 C5.12051025 3.02965232 6.06118819 4.01394098 7 5 C8.11974769 6.13462259 9.24180247 7.26697134 10.36572266 8.39746094 C10.97630524 9.0144989 11.58688782 9.63153687 12.2159729 10.26727295 C14.95935628 13.03743048 17.70806384 15.80227953 20.45703125 18.56689453 C21.90770337 20.02769522 23.35658563 21.49027546 24.80371094 22.95458984 C26.89832317 25.07338162 28.99925896 27.185718 31.1015625 29.296875 C31.74848053 29.9541156 32.39539856 30.6113562 33.06192017 31.28851318 C33.66619843 31.8929425 34.27047668 32.49737183 34.89306641 33.12011719 C35.68651962 33.92023224 35.68651962 33.92023224 36.4960022 34.73651123 C38.092964 36.23548566 38.092964 36.23548566 41 37 C43.80251641 36.42265756 46.49774027 35.76353734 49.25 35 C50.08700439 34.7743335 50.92400879 34.54866699 51.78637695 34.31616211 C59.26257659 32.27094888 66.65583321 29.9697302 74.05712891 27.67138672 C104.49486814 18.33769043 104.49486814 18.33769043 115.98828125 17.68359375 C116.69404297 17.64169922 117.39980469 17.59980469 118.12695312 17.55664062 C118.84818359 17.51732422 119.56941406 17.47800781 120.3125 17.4375 C121.05306641 17.39431641 121.79363281 17.35113281 122.55664062 17.30664062 C124.37091464 17.20129568 126.1854355 17.10021684 128 17 C125.42215154 14.35247996 123.08351902 12.05567935 120 10 C124.71839078 10.46513397 126.77496406 12.26115915 130.08984375 15.55859375 C130.79035606 16.25336571 130.79035606 16.25336571 131.50502014 16.96217346 C132.49061117 17.94504843 133.47119244 18.93296945 134.44702148 19.92553711 C135.91578791 21.41547495 137.40432003 22.88315069 138.89648438 24.34960938 C149.1974742 34.61858571 155.91744318 45.1728386 156.375 60.0625 C156.06531689 70.47054535 152.53587603 78.85116775 145.6875 86.625 C136.17341601 95.03279515 127.9804405 99.23686935 115 99 C98.75577227 97.00339444 89.08286526 88.83563042 78.33764648 77.3034668 C77.01150995 75.87911955 77.01150995 75.87911955 75 75 C75 74.34 75 73.68 75 73 C74.34 73 73.68 73 73 73 C73 72.34 73 71.68 73 71 C72.40354675 70.72919113 71.80709351 70.45838226 71.19256592 70.17936707 C69.0242477 69.01304268 67.63737398 67.87418908 65.91894531 66.13012695 C65.34444641 65.5522493 64.76994751 64.97437164 64.17803955 64.37898254 C63.56756775 63.75505112 62.95709595 63.13111969 62.328125 62.48828125 C61.68687683 61.84183151 61.04562866 61.19538177 60.38494873 60.52934265 C58.33515238 58.46175974 56.29214555 56.38763776 54.25 54.3125 C52.22133738 52.25603754 50.1911744 50.20111681 48.15789795 48.1492157 C46.89497334 46.87423441 45.6347266 45.59659246 44.37774658 44.31575012 C40.6880527 40.58501253 36.86063937 37.09278774 32.88989258 33.6638031 C30.20010353 31.29579583 27.69838656 28.79246349 25.1796875 26.2421875 C24.67253204 25.73124542 24.16537659 25.22030334 23.64285278 24.69387817 C22.05105048 23.09005602 20.46259818 21.48298312 18.875 19.875 C16.77122965 17.74439748 14.66399662 15.61730519 12.5546875 13.4921875 C11.63155762 12.55745605 10.70842773 11.62272461 9.75732422 10.65966797 C7.77766029 8.75011787 5.85293263 7.04962424 3.71533203 5.34423828 C1 3 1 3 0 0 Z " fill="#1C6C72" transform="translate(146,321)"/>
<path d="M0 0 C0.33 0 0.66 0 1 0 C1.33 34.32 1.66 68.64 2 104 C0.515 104.495 0.515 104.495 -1 105 C-1.15356539 92.50049066 -1.30174717 80.00093039 -1.4429636 67.50127506 C-1.50869986 61.69783586 -1.57632441 55.89443121 -1.64819336 50.09106445 C-1.71742013 44.4955372 -1.78177964 38.8999736 -1.84269524 33.3043499 C-1.86686033 31.16439196 -1.89281024 29.02445344 -1.92053413 26.88453865 C-1.95892312 23.8983985 -1.99109246 20.91225368 -2.02172852 17.92602539 C-2.03467453 17.03194977 -2.04762054 16.13787415 -2.06095886 15.21670532 C-2.07898757 13.14444902 -2.04528625 11.07183985 -2 9 C-1.67 8.67 -1.34 8.34 -1 8 C-0.76924918 6.65252916 -0.58846937 5.29622435 -0.4375 3.9375 C-0.293125 2.638125 -0.14875 1.33875 0 0 Z " fill="#FA7D24" transform="translate(144,107)"/>
<path d="M0 0 C0.82421875 2.09375 0.82421875 2.09375 1 5 C-0.64679841 7.41978542 -2.21499209 9.37596681 -4.1875 11.5 C-4.72906738 12.10513428 -5.27063477 12.71026855 -5.82861328 13.33374023 C-7.53834681 15.23577558 -9.26863607 17.11765918 -11 19 C-12.08840392 20.20858788 -13.17567519 21.4181969 -14.26171875 22.62890625 C-15.29822307 23.77457517 -16.3359379 24.91915035 -17.375 26.0625 C-17.8496167 26.58585937 -18.3242334 27.10921875 -18.81323242 27.6484375 C-21.99921386 31.09430599 -25.35187373 34.06750912 -29 37 C-28.42437172 33.66135596 -27.40936384 32.30897368 -25 30 C-24.67 29.01 -24.34 28.02 -24 27 C-22.3603279 25.63360658 -20.68889872 24.3050581 -19 23 C-17.29115995 21.37660195 -15.62553283 19.70680947 -14 18 C-13.29423828 17.26910156 -13.29423828 17.26910156 -12.57421875 16.5234375 C-9.69980824 13.37622183 -9.69980824 13.37622183 -8.86328125 9.3125 C-8.90839844 8.549375 -8.95351562 7.78625 -9 7 C-9.52432617 7.32798584 -10.04865234 7.65597168 -10.58886719 7.99389648 C-12.97250608 9.48063985 -15.36115953 10.95913017 -17.75 12.4375 C-18.575 12.95376953 -19.4 13.47003906 -20.25 14.00195312 C-21.04921875 14.49501953 -21.8484375 14.98808594 -22.671875 15.49609375 C-23.4050293 15.95169678 -24.13818359 16.4072998 -24.89355469 16.87670898 C-26.94111913 17.96860097 -28.73322604 18.54978106 -31 19 C-27.44441762 14.93512996 -23.19507695 12.5762095 -18.5625 9.9375 C-17.0637527 9.07170006 -15.56505357 8.20581674 -14.06640625 7.33984375 C-13.3614502 6.93491699 -12.65649414 6.52999023 -11.93017578 6.11279297 C-1.32733655 0 -1.32733655 0 0 0 Z " fill="#D1A62D" transform="translate(264,192)"/>
<path d="M0 0 C3.39988121 1.46601695 5.57460259 3.35255686 8.15234375 5.9921875 C8.92900391 6.77980469 9.70566406 7.56742187 10.50585938 8.37890625 C11.30830078 9.20261719 12.11074219 10.02632813 12.9375 10.875 C14.527573 12.4997235 16.11995413 14.12219191 17.71484375 15.7421875 C18.41730225 16.4626123 19.11976074 17.18303711 19.84350586 17.92529297 C22.11910006 20.11458308 24.5214547 22.04591896 27 24 C29.29618503 26.21926091 31.51819538 28.49917856 33.73193359 30.80029297 C44.21588989 41.68199997 52.93156299 50.34510251 68 54 C68 54.33 68 54.66 68 55 C54.06969929 54.54326883 45.99952124 46.5533949 36.87109375 36.94921875 C36.36505615 36.40612061 35.85901855 35.86302246 35.33764648 35.3034668 C34.01150995 33.87911955 34.01150995 33.87911955 32 33 C32 32.34 32 31.68 32 31 C31.34 31 30.68 31 30 31 C30 30.34 30 29.68 30 29 C29.46536133 28.79060791 28.93072266 28.58121582 28.37988281 28.36547852 C25.06846546 26.46552394 22.58277451 23.848129 19.921875 21.15234375 C19.35043762 20.58044815 18.77900024 20.00855255 18.19024658 19.41932678 C16.98773552 18.21380214 15.78764828 17.00585546 14.58984375 15.7956543 C12.74794101 13.93542052 10.89808634 12.08338783 9.046875 10.23242188 C7.87973386 9.06036812 6.71305087 7.88785793 5.546875 6.71484375 C4.99070496 6.15756088 4.43453491 5.60027802 3.86151123 5.02610779 C0 1.11606528 0 1.11606528 0 0 Z " fill="#1F5D56" transform="translate(189,363)"/>
<path d="M0 0 C0 3 0 3 -2.16015625 5.41796875 C-3.12108095 6.34793387 -4.08898546 7.27072258 -5.0625 8.1875 C-6.08786829 9.18030141 -7.11130789 10.17509864 -8.1328125 11.171875 C-8.63071289 11.65720703 -9.12861328 12.14253906 -9.64160156 12.64257812 C-11.33362807 14.33338822 -12.89444101 16.11039533 -14.4375 17.9375 C-19.27571924 23.61766426 -24.68897018 28.7674583 -30 34 C-30 31 -30 31 -28.82592773 29.5012207 C-28.28395752 28.98132568 -27.7419873 28.46143066 -27.18359375 27.92578125 C-26.58764404 27.34465576 -25.99169434 26.76353027 -25.37768555 26.16479492 C-24.73742432 25.5535376 -24.09716309 24.94228027 -23.4375 24.3125 C-22.13877459 23.0461658 -20.84187832 21.7779528 -19.546875 20.5078125 C-18.61584961 19.59563965 -18.61584961 19.59563965 -17.66601562 18.66503906 C-15.18832357 16.18879935 -12.92472875 13.55894219 -10.6640625 10.88671875 C-7.30232704 7.07517362 -3.62901141 3.55494995 0 0 Z " fill="#FA891A" transform="translate(182,170)"/>
<path d="M0 0 C0.33 0.99 0.66 1.98 1 3 C-0.70342586 4.90044131 -2.41247117 6.79528874 -4.125 8.6875 C-4.599375 9.21794922 -5.07375 9.74839844 -5.5625 10.29492188 C-8.81499131 13.87705758 -12.22047225 16.97749932 -16 20 C-15.42437172 16.66135596 -14.40936384 15.30897368 -12 13 C-11.67 12.01 -11.34 11.02 -11 10 C-9.3603279 8.63360658 -7.68889872 7.3050581 -6 6 C-4.3142876 4.35259924 -2.6436814 2.68933922 -1 1 C-0.67 0.67 -0.34 0.34 0 0 Z " fill="#C5AE32" transform="translate(251,209)"/>
<path d="M0 0 C2.8623948 1.30052454 4.9390298 2.68322835 7.1640625 4.8984375 C7.72867187 5.46046875 8.29328125 6.0225 8.875 6.6015625 C9.4525 7.18679688 10.03 7.77203125 10.625 8.375 C11.21023438 8.9525 11.79546875 9.53 12.3984375 10.125 C12.96046875 10.68960937 13.5225 11.25421875 14.1015625 11.8359375 C14.61025879 12.34688965 15.11895508 12.8578418 15.64306641 13.38427734 C17.12346049 15.1470064 18.05056195 16.91033045 19 19 C15.66209265 17.88736422 15.02812376 17.09509961 12.875 14.4375 C9.48446457 10.40806282 5.7536308 7.0422749 1.72265625 3.6640625 C1.15417969 3.11492187 0.58570313 2.56578125 0 2 C0 1.34 0 0.68 0 0 Z " fill="#27625B" transform="translate(276,339)"/>
<path d="M0 0 C0.33 0 0.66 0 1 0 C1 1.98 1 3.96 1 6 C1.66 6 2.32 6 3 6 C3.66 9.63 4.32 13.26 5 17 C1.00754142 13.93911509 0.20633349 10.92399009 -0.80078125 6.21875 C-1.01059906 3.88195556 -0.70250644 2.22376139 0 0 Z " fill="#FA8518" transform="translate(283,114)"/>
<path d="M0 0 C0.66 0.33 1.32 0.66 2 1 C2 4 2 4 1 6 C0.34 6 -0.32 6 -1 6 C-1.2475 6.61875 -1.495 7.2375 -1.75 7.875 C-3.22047178 10.37480203 -4.41403076 10.83316022 -7 12 C-6.66226563 11.46890625 -6.32453125 10.9378125 -5.9765625 10.390625 C-5.53054687 9.68421875 -5.08453125 8.9778125 -4.625 8.25 C-4.18414062 7.55390625 -3.74328125 6.8578125 -3.2890625 6.140625 C-2.08119094 4.13482617 -1.01612263 2.10821704 0 0 Z " fill="#ABA634" transform="translate(232,227)"/>
<path d="M0 0 C0 3 0 3 -2.1875 5.48046875 C-3.115625 6.37378906 -4.04375 7.26710937 -5 8.1875 C-5.928125 9.08855469 -6.85625 9.98960937 -7.8125 10.91796875 C-8.534375 11.60503906 -9.25625 12.29210937 -10 13 C-10.33 12.01 -10.66 11.02 -11 10 C-5.555 5.05 -5.555 5.05 0 0 Z " fill="#B3A22F" transform="translate(246,216)"/>
<path d="M0 0 C-5.35006016 3.28767869 -9.68368172 5.59683075 -16 6 C-11.78590175 2.33556674 -5.52473958 -1.84157986 0 0 Z " fill="#87B13F" transform="translate(120,270)"/>
<path d="M0 0 C0.66 0.33 1.32 0.66 2 1 C0.92319498 2.13125022 -0.16175635 3.25474919 -1.25 4.375 C-1.85328125 5.00148438 -2.4565625 5.62796875 -3.078125 6.2734375 C-4.9700588 7.97310161 -6.68201309 8.98459866 -9 10 C-7.61811547 6.78956118 -6.07578097 4.95063635 -3.375 2.75 C-2.74335937 2.22921875 -2.11171875 1.7084375 -1.4609375 1.171875 C-0.73777344 0.59179688 -0.73777344 0.59179688 0 0 Z " fill="#84B240" transform="translate(70,294)"/>
<path d="M0 0 C0.66 0.33 1.32 0.66 2 1 C-0.97 3.64 -3.94 6.28 -7 9 C-7.66 8.67 -8.32 8.34 -9 8 C-6.14723863 5.06799526 -3.34920216 2.35684596 0 0 Z " fill="#B6BA31" transform="translate(198,263)"/>
<path d="M0 0 C0 0.99 0 1.98 0 3 C-3.96 4.98 -3.96 4.98 -8 7 C-8.33 6.34 -8.66 5.68 -9 5 C-6.03 3.35 -3.06 1.7 0 0 Z " fill="#A7AE36" transform="translate(226,214)"/>
<path d="M0 0 C0.99 0.33 1.98 0.66 3 1 C2.34 1 1.68 1 1 1 C0.67 1.66 0.34 2.32 0 3 C0 2.01 0 1.02 0 0 Z " fill="#FFBA11" transform="translate(192,155)"/>
<path d="M0 0 C3 1 3 1 3 1 Z " fill="#FFB846" transform="translate(313,320)"/>
<path d="" fill="#FFB81C" transform="translate(0,0)"/>
<path d="" fill="#FF7F00" transform="translate(0,0)"/>
<path d="" fill="#FFFF00" transform="translate(0,0)"/>
<path d="M0 0 C2 1 2 1 2 1 Z " fill="#FFBF00" transform="translate(378,174)"/>
<path d="" fill="#FFA519" transform="translate(0,0)"/>
<path d="" fill="#FF9400" transform="translate(0,0)"/>
<path d="M0 0 C2 1 2 1 2 1 Z " fill="#FFFF00" transform="translate(204,144)"/>
<path d="M0 0 C2 1 2 1 2 1 Z " fill="#FFD42A" transform="translate(289,138)"/>
<path d="" fill="#FFB44A" transform="translate(0,0)"/>
<path d="M0 0 C2 1 2 1 2 1 Z " fill="#FF7F00" transform="translate(74,67)"/>
<path d="" fill="#007F7F" transform="translate(0,0)"/>
<path d="" fill="#00FF00" transform="translate(0,0)"/>
<path d="" fill="#00FF00" transform="translate(0,0)"/>
<path d="" fill="#00FF00" transform="translate(0,0)"/>
<path d="" fill="#00FF00" transform="translate(0,0)"/>
<path d="" fill="#FF7F7F" transform="translate(0,0)"/>
<path d="" fill="#FFFF00" transform="translate(0,0)"/>
<path d="" fill="#000000" transform="translate(0,0)"/>
<path d="" fill="#FFFF00" transform="translate(0,0)"/>
<path d="" fill="#FF7F00" transform="translate(0,0)"/>
<path d="" fill="#FFFF00" transform="translate(0,0)"/>
<path d="" fill="#00FF00" transform="translate(0,0)"/>
<path d="" fill="#FF9933" transform="translate(0,0)"/>
<path d="" fill="#FFFF00" transform="translate(0,0)"/>
<path d="" fill="#FFAA55" transform="translate(0,0)"/>
<path d="" fill="#FFBF3F" transform="translate(0,0)"/>
<path d="" fill="#FFFF00" transform="translate(0,0)"/>
<path d="" fill="#00FF00" transform="translate(0,0)"/>
<path d="" fill="#FF7F7F" transform="translate(0,0)"/>
<path d="" fill="#FFFF00" transform="translate(0,0)"/>
<path d="" fill="#FFFF00" transform="translate(0,0)"/>
<path d="" fill="#FFFF00" transform="translate(0,0)"/>
<path d="" fill="#FFFF00" transform="translate(0,0)"/>
<path d="" fill="#FFFF00" transform="translate(0,0)"/>
<path d="" fill="#FFAA55" transform="translate(0,0)"/>
<path d="" fill="#FF7F00" transform="translate(0,0)"/>
<path d="" fill="#FFAA2A" transform="translate(0,0)"/>
<path d="" fill="#FF7F00" transform="translate(0,0)"/>
<path d="" fill="#00FF00" transform="translate(0,0)"/>
<path d="" fill="#FF7F00" transform="translate(0,0)"/>
<path d="" fill="#FFFF00" transform="translate(0,0)"/>
<path d="" fill="#FF7F00" transform="translate(0,0)"/>
<path d="" fill="#FFFF00" transform="translate(0,0)"/>
<path d="" fill="#FF7F00" transform="translate(0,0)"/>
<path d="" fill="#FFFF00" transform="translate(0,0)"/>
<path d="" fill="#FFFF00" transform="translate(0,0)"/>
<path d="" fill="#FFAA55" transform="translate(0,0)"/>
<path d="" fill="#FFFF00" transform="translate(0,0)"/>
<path d="" fill="#FF7F00" transform="translate(0,0)"/>
<path d="" fill="#FFFF00" transform="translate(0,0)"/>
<path d="" fill="#FFFF00" transform="translate(0,0)"/>
<path d="" fill="#FFFF00" transform="translate(0,0)"/>
<path d="" fill="#FF7F00" transform="translate(0,0)"/>
<path d="" fill="#FFBF3F" transform="translate(0,0)"/>
<path d="" fill="#FFFF00" transform="translate(0,0)"/>
<path d="" fill="#FF7F00" transform="translate(0,0)"/>
<path d="" fill="#FFFF00" transform="translate(0,0)"/>
<path d="" fill="#FFFF00" transform="translate(0,0)"/>
<path d="" fill="#FF0000" transform="translate(0,0)"/>
<path d="" fill="#FFFF00" transform="translate(0,0)"/>
<path d="" fill="#FFFF00" transform="translate(0,0)"/>
<path d="" fill="#FFFF00" transform="translate(0,0)"/>
<path d="" fill="#FFFF00" transform="translate(0,0)"/>
<path d="" fill="#FFFF00" transform="translate(0,0)"/>
<path d="" fill="#FFFF00" transform="translate(0,0)"/>
<path d="" fill="#FFFF00" transform="translate(0,0)"/>
<path d="" fill="#FFAA55" transform="translate(0,0)"/>
<path d="" fill="#FF7F00" transform="translate(0,0)"/>
<path d="" fill="#FFFF00" transform="translate(0,0)"/>
<path d="" fill="#FF9933" transform="translate(0,0)"/>
<path d="" fill="#FF9933" transform="translate(0,0)"/>
<path d="" fill="#FFAA55" transform="translate(0,0)"/>
<path d="" fill="#FF7F00" transform="translate(0,0)"/>
<path d="" fill="#FFAA55" transform="translate(0,0)"/>
<path d="" fill="#FFFF00" transform="translate(0,0)"/>
<path d="" fill="#FFFF00" transform="translate(0,0)"/>
<path d="" fill="#FFFF00" transform="translate(0,0)"/>
<path d="" fill="#FFFF00" transform="translate(0,0)"/>
<path d="" fill="#FFFF00" transform="translate(0,0)"/>
<path d="" fill="#FFFF00" transform="translate(0,0)"/>
<path d="" fill="#FFFF00" transform="translate(0,0)"/>
<path d="" fill="#FF7F00" transform="translate(0,0)"/>
<path d="" fill="#FF7F00" transform="translate(0,0)"/>
<path d="" fill="#FF7F00" transform="translate(0,0)"/>
<path d="" fill="#FF0000" transform="translate(0,0)"/>
<path d="" fill="#FF0000" transform="translate(0,0)"/>
<path d="" fill="#FFFF00" transform="translate(0,0)"/>
<path d="" fill="#FF0000" transform="translate(0,0)"/>
<path d="" fill="#FFFF00" transform="translate(0,0)"/>
</svg>
